HIERARCHY
ROOT Hips
{
    OFFSET 0.000000 0.000000 0.000000
    CHANNELS 6 Xposition Yposition Zposition Zrotation Xrotation Yrotation
    JOINT Spine
    {
        OFFSET -0.000000 7.284621 0.000000
        CHANNELS 3 Zrotation Xrotation Yrotation
        JOINT Spine1
        {
            OFFSET -0.000000 19.968920 0.000000
            CHANNELS 3 Zrotation Xrotation Yrotation
            JOINT Neck
            {
                OFFSET -0.000000 21.745657 0.000000
                CHANNELS 3 Zrotation Xrotation Yrotation
                JOINT Head
                {
                    OFFSET -0.000000 13.769711 1.776737
                    CHANNELS 3 Zrotation Xrotation Yrotation
                    End Site
                    {
                        OFFSET -0.000000 17.767368 0.000000
                    }
                }
            }
            JOINT LeftShoulder
            {
                OFFSET 3.594505 17.711157 -0.013107
                CHANNELS 3 Zrotation Xrotation Yrotation
                JOINT LeftArm
                {
                    OFFSET 12.210003 0.000000 0.000000
                    CHANNELS 3 Zrotation Xrotation Yrotation
                    JOINT LeftForeArm
                    {
                        OFFSET 24.535166 0.000000 0.000000
                        CHANNELS 3 Zrotation Xrotation Yrotation
                        JOINT LeftHand
                        {
                            OFFSET 20.235195 0.000000 0.000000
                            CHANNELS 3 Zrotation Xrotation Yrotation
                            JOINT LeftHandThumb1
                            {
                                OFFSET 1.906737 -2.166747 3.033446
                                CHANNELS 3 Zrotation Xrotation Yrotation
                                JOINT LeftHandThumb2
                                {
                                    OFFSET 2.043247 0.000000 1.332553
                                    CHANNELS 3 Zrotation Xrotation Yrotation
                                    JOINT LeftHandThumb3
                                    {
                                        OFFSET 2.665105 0.000000 0.000000
                                        CHANNELS 3 Zrotation Xrotation Yrotation
                                        End Site
                                        {
                                            OFFSET 2.367595 0.000000 0.000000
                                        }
                                    }
                                }
                            }
                            JOINT LeftHandIndex1
                            {
                                OFFSET 7.800290 0.000000 3.033446
                                CHANNELS 3 Zrotation Xrotation Yrotation
                                JOINT LeftHandIndex2
                                {
                                    OFFSET 4.441842 0.000000 0.000000
                                    CHANNELS 3 Zrotation Xrotation Yrotation
                                    JOINT LeftHandIndex3
                                    {
                                        OFFSET 2.220921 0.000000 0.000000
                                        CHANNELS 3 Zrotation Xrotation Yrotation
                                        End Site
                                        {
                                            OFFSET 1.972996 0.000000 0.000000
                                        }
                                    }
                                }
                            }
                            JOINT LeftHandMiddle1
                            {
                                OFFSET 7.800290 0.000000 1.005371
                                CHANNELS 3 Zrotation Xrotation Yrotation
                                JOINT LeftHandMiddle2
                                {
                                    OFFSET 4.886026 0.000000 0.000000
                                    CHANNELS 3 Zrotation Xrotation Yrotation
                                    JOINT LeftHandMiddle3
                                    {
                                        OFFSET 2.665105 0.000000 0.000000
                                        CHANNELS 3 Zrotation Xrotation Yrotation
                                        End Site
                                        {
                                            OFFSET 2.367595 0.000000 0.000000
                                        }
                                    }
                                }
                            }
                            JOINT LeftHandRing1
                            {
                                OFFSET 7.366940 0.000000 -1.005371
                                CHANNELS 3 Zrotation Xrotation Yrotation
                                JOINT LeftHandRing2
                                {
                                    OFFSET 4.441842 0.000000 0.000000
                                    CHANNELS 3 Zrotation Xrotation Yrotation
                                    JOINT LeftHandRing3
                                    {
                                        OFFSET 2.220921 0.000000 0.000000
                                        CHANNELS 3 Zrotation Xrotation Yrotation
                                        End Site
                                        {
                                            OFFSET 1.972996 0.000000 0.000000
                                        }
                                    }
                                }
                            }
                            JOINT LeftHandPinky1
                            {
                                OFFSET 6.933591 0.000000 -3.033446
                                CHANNELS 3 Zrotation Xrotation Yrotation
                                JOINT LeftHandPinky2
                                {
                                    OFFSET 3.553473 0.000000 0.000000
                                    CHANNELS 3 Zrotation Xrotation Yrotation
                                    JOINT LeftHandPinky3
                                    {
                                        OFFSET 1.776737 0.000000 0.000000
                                        CHANNELS 3 Zrotation Xrotation Yrotation
                                        End Site
                                        {
                                            OFFSET 1.578397 0.000000 0.000000
                                        }
                                    }
                                }
                            }
                        }
                    }
                }
            }
            JOINT RightShoulder
            {
                OFFSET -3.500468 17.711157 -0.013107
                CHANNELS 3 Zrotation Xrotation Yrotation
                JOINT RightArm
                {
                    OFFSET -12.210003 0.000000 0.000000
                    CHANNELS 3 Zrotation Xrotation Yrotation
                    JOINT RightForeArm
                    {
                        OFFSET -24.535166 0.000000 0.000000
                        CHANNELS 3 Zrotation Xrotation Yrotation
                        JOINT RightHand
                        {
                            OFFSET -20.235195 0.000000 0.000000
                            CHANNELS 3 Zrotation Xrotation Yrotation
                            JOINT RightHandThumb1
                            {
                                OFFSET -1.906737 -2.166747 3.033446
                                CHANNELS 3 Zrotation Xrotation Yrotation
                                JOINT RightHandThumb2
                                {
                                    OFFSET -2.043247 0.000000 1.332553
                                    CHANNELS 3 Zrotation Xrotation Yrotation
                                    JOINT RightHandThumb3
                                    {
                                        OFFSET -2.665105 0.000000 0.000000
                                        CHANNELS 3 Zrotation Xrotation Yrotation
                                        End Site
                                        {
                                            OFFSET -2.367595 0.000000 0.000000
                                        }
                                    }
                                }
                            }
                            JOINT RightHandIndex1
                            {
                                OFFSET -7.800290 0.000000 3.033446
                                CHANNELS 3 Zrotation Xrotation Yrotation
                                JOINT RightHandIndex2
                                {
                                    OFFSET -4.441842 0.000000 0.000000
                                    CHANNELS 3 Zrotation Xrotation Yrotation
                                    JOINT RightHandIndex3
                                    {
                                        OFFSET -2.220921 0.000000 0.000000
                                        CHANNELS 3 Zrotation Xrotation Yrotation
                                        End Site
                                        {
                                            OFFSET -1.972996 0.000000 0.000000
                                        }
                                    }
                                }
                            }
                            JOINT RightHandMiddle1
                            {
                                OFFSET -7.800290 0.000000 1.005371
                                CHANNELS 3 Zrotation Xrotation Yrotation
                                JOINT RightHandMiddle2
                                {
                                    OFFSET -4.886026 0.000000 0.000000
                                    CHANNELS 3 Zrotation Xrotation Yrotation
                                    JOINT RightHandMiddle3
                                    {
                                        OFFSET -2.665105 0.000000 0.000000
                                        CHANNELS 3 Zrotation Xrotation Yrotation
                                        End Site
                                        {
                                            OFFSET -2.367595 0.000000 0.000000
                                        }
                                    }
                                }
                            }
                            JOINT RightHandRing1
                            {
                                OFFSET -7.366940 0.000000 -1.005371
                                CHANNELS 3 Zrotation Xrotation Yrotation
                                JOINT RightHandRing2
                                {
                                    OFFSET -4.441842 0.000000 0.000000
                                    CHANNELS 3 Zrotation Xrotation Yrotation
                                    JOINT RightHandRing3
                                    {
                                        OFFSET -2.220921 0.000000 0.000000
                                        CHANNELS 3 Zrotation Xrotation Yrotation
                                        End Site
                                        {
                                            OFFSET -1.972996 0.000000 0.000000
                                        }
                                    }
                                }
                            }
                            JOINT RightHandPinky1
                            {
                                OFFSET -6.933591 0.000000 -3.033446
                                CHANNELS 3 Zrotation Xrotation Yrotation
                                JOINT RightHandPinky2
                                {
                                    OFFSET -3.553473 0.000000 0.000000
                                    CHANNELS 3 Zrotation Xrotation Yrotation
                                    JOINT RightHandPinky3
                                    {
                                        OFFSET -1.776737 0.000000 0.000000
                                        CHANNELS 3 Zrotation Xrotation Yrotation
                                        End Site
                                        {
                                            OFFSET -1.578397 0.000000 0.000000
                                        }
                                    }
                                }
                            }
                        }
                    }
                }
            }
        }
    }
    JOINT LeftUpLeg
    {
        OFFSET 8.883684 0.000000 0.000000
        CHANNELS 3 Zrotation Xrotation Yrotation
        JOINT LeftLeg
        {
            OFFSET -0.000000 -38.184189 0.000000
            CHANNELS 3 Zrotation Xrotation Yrotation
            JOINT LeftFoot
            {
                OFFSET -0.000000 -35.840691 0.000000
                CHANNELS 3 Zrotation Xrotation Yrotation
                JOINT LeftToeBase
                {
                    OFFSET -0.000000 -5.774395 13.325527
                    CHANNELS 3 Zrotation Xrotation Yrotation
                    End Site
                    {
                        OFFSET -0.000000 0.000000 3.553473
                    }
                }
            }
        }
    }
    JOINT RightUpLeg
    {
        OFFSET -8.883684 0.000000 0.000000
        CHANNELS 3 Zrotation Xrotation Yrotation
        JOINT RightLeg
        {
            OFFSET -0.000000 -38.184189 0.000000
            CHANNELS 3 Zrotation Xrotation Yrotation
            JOINT RightFoot
            {
                OFFSET -0.000000 -35.840691 0.000000
                CHANNELS 3 Zrotation Xrotation Yrotation
                JOINT RightToeBase
                {
                    OFFSET -0.000000 -5.774395 13.325527
                    CHANNELS 3 Zrotation Xrotation Yrotation
                    End Site
                    {
                        OFFSET -0.000000 0.000000 3.553473
                    }
                }
            }
        }
    }
}
MOTION
Frames:    5
Frame Time:    0.008333
-1.133108    78.315849    124.539413    -5.728978    -9.447248    -25.492846    -10.867352    -16.494452    -12.349533    -3.037980    19.990725    -3.070026    1.249042    31.278521    14.110683    11.713470    6.747273    12.937949    6.580470    7.521608    -11.689685    -65.623535    58.346645    -3.637237    27.816795    11.045090    -29.573147    -48.329575    -10.893150    -31.786667    -3.902902    1.526644    -2.650216    0.000000    0.000000    0.000000    0.000000    0.000000    0.000000    -24.886595    10.628106    -21.681358    -53.854950    0.000000    0.000000    -26.927475    0.000000    0.000000    -31.800179    4.365737    -9.403008    -64.195847    0.000000    0.000000    -32.097919    0.000000    0.000000    -37.223248    -3.169980    2.027633    -74.536736    0.000000    0.000000    -37.268368    0.000000    0.000000    -41.213921    -11.877003    13.223532    -85.190987    0.000000    0.000000    -42.595497    0.000000    0.000000    -10.508293    7.303038    -2.863158    92.810410    53.450947    -4.306973    -6.733150    -16.503250    9.446124    20.958828    -48.193810    7.712241    0.137472    0.476826    -0.715045    0.000000    0.000000    -1.165433    0.000000    0.000000    -2.330865    14.206606    0.023784    0.093949    28.413248    0.000000    -0.000000    14.206624    0.000000    -0.000000    24.075283    0.021425    0.061728    48.150581    0.000000    -0.000000    24.075294    0.000000    -0.000000    33.943954    0.013578    0.030388    67.887909    0.000000    -0.000000    33.943954    0.000000    -0.000000    44.111668    0.000000    -0.000000    88.223343    0.000000    -0.000000    44.111668    0.000000    -0.000000    19.792833    18.191046    9.435353    1.589915    13.271368    12.986613    -23.398224    -3.012717    -25.101606    0.030616    -1.958974    -0.796349    -11.656019    -1.860453    -1.248777    9.074180    32.300465    -13.712092    6.600913    -20.318861    -3.350127    0.157493    -0.344345    -0.255635    
-1.088627    78.311676    124.565376    -5.865387    -9.914763    -24.673973    -11.123843    -16.250999    -12.327886    -3.504478    20.590618    -2.957839    1.363967    31.536657    14.012226    12.342756    6.578221    12.787807    6.721885    7.402796    -12.277294    -65.356537    58.445961    -2.818641    28.532160    10.359719    -30.980818    -48.133999    -11.071064    -31.763077    -3.749775    1.468561    -2.538195    0.000000    0.000000    0.000000    0.000000    0.000000    0.000000    -24.954210    10.482632    -21.354582    -53.871918    0.000000    0.000000    -26.935959    0.000000    0.000000    -31.771723    4.261855    -9.202485    -64.113075    0.000000    0.000000    -32.056541    0.000000    0.000000    -37.127045    -3.203186    2.122128    -74.354248    0.000000    0.000000    -37.177124    0.000000    0.000000    -41.078312    -11.818317    13.222185    -84.905746    0.000000    0.000000    -42.452873    0.000000    0.000000    -10.719579    7.147897    -2.413096    93.044327    54.507236    -4.228914    -6.927137    -16.196764    9.669488    21.016354    -47.706978    7.641510    0.141672    0.477451    -0.712966    0.000000    0.000000    -1.173332    0.000000    0.000000    -2.346664    14.150902    0.027783    0.110193    28.301851    0.000000    -0.000000    14.150927    0.000000    -0.000000    24.032427    0.025061    0.072406    48.064884    0.000000    -0.000000    24.032440    0.000000    -0.000000    33.913952    0.015895    0.035646    67.827911    0.000000    -0.000000    33.913952    0.000000    -0.000000    44.094906    0.000000    -0.000000    88.189819    0.000000    -0.000000    44.094906    0.000000    -0.000000    20.097599    18.133234    9.055106    1.513343    13.584353    12.559132    -23.272682    -3.156103    -25.157135    0.039725    -1.920246    -0.805979    -11.590693    -1.169571    -1.388077    8.982828    32.330719    -13.629983    6.708177    -20.581337    -3.142198    0.164651    -0.389173    -0.266241    
-1.047892    78.309128    124.585091    -5.984301    -10.376614    -23.841228    -11.380726    -15.983156    -12.292094    -3.980849    21.162033    -2.836256    1.459860    31.789047    13.916598    12.970655    6.411216    12.634852    6.865776    7.305268    -12.848431    -65.109489    58.510712    -1.941524    29.263214    9.629118    -32.437984    -47.880558    -11.262839    -31.704353    -3.603966    1.408022    -2.440272    0.000000    0.000000    0.000000    0.000000    0.000000    0.000000    -25.055563    10.354048    -21.029699    -53.964828    0.000000    0.000000    -26.982414    0.000000    0.000000    -31.750423    4.174751    -9.011486    -64.048790    0.000000    0.000000    -32.024391    0.000000    0.000000    -37.012375    -3.214073    2.202231    -74.132751    0.000000    0.000000    -37.066380    0.000000    0.000000    -40.899155    -11.726567    13.204741    -84.522308    0.000000    0.000000    -42.261147    0.000000    0.000000    -10.937809    6.999159    -1.961284    93.307625    55.613041    -4.176843    -7.149108    -15.868226    9.914712    21.110924    -47.191113    7.622987    0.155749    0.485019    -0.715447    0.000000    0.000000    -1.189106    0.000000    0.000000    -2.378212    14.114064    0.031999    0.127260    28.228201    0.000000    -0.000000    14.114099    0.000000    -0.000000    24.005478    0.028892    0.083624    48.010994    0.000000    -0.000000    24.005497    0.000000    -0.000000    33.896889    0.018335    0.041170    67.793793    0.000000    -0.000000    33.896889    0.000000    -0.000000    44.088032    0.000000    -0.000000    88.176064    0.000000    -0.000000    44.088032    0.000000    -0.000000    20.405241    18.045881    8.685049    1.430434    13.908200    12.148700    -23.148260    -3.287659    -25.223234    0.050192    -1.878184    -0.817962    -11.510661    -0.488960    -1.526344    8.877821    32.355881    -13.502101    6.838320    -20.832947    -2.896409    0.172050    -0.431664    -0.277349    
-1.011019    78.307816    124.597397    -6.082261    -10.824862    -22.990498    -11.640434    -15.696727    -12.245990    -4.463509    21.702791    -2.707255    1.541538    32.033680    13.819348    13.576362    6.252896    12.479223    7.014804    7.228931    -13.404789    -64.893883    58.540779    -1.000296    30.010740    8.850622    -33.936935    -47.566246    -11.459530    -31.604624    -3.463024    1.335526    -2.368110    0.000000    0.000000    0.000000    0.000000    0.000000    0.000000    -25.176807    10.245128    -20.725084    -54.110111    0.000000    0.000000    -27.055056    0.000000    0.000000    -31.734875    4.104947    -8.838464    -64.000237    0.000000    0.000000    -32.000122    0.000000    0.000000    -36.888287    -3.207781    2.267446    -73.890358    0.000000    0.000000    -36.945183    0.000000    0.000000    -40.693951    -11.615292    13.177226    -84.080185    0.000000    0.000000    -42.040096    0.000000    0.000000    -11.158619    6.859664    -1.508219    93.595352    56.753052    -4.149412    -7.402415    -15.513782    10.181874    21.234045    -46.654415    7.646003    0.183731    0.501449    -0.722778    0.000000    0.000000    -1.212557    0.000000    0.000000    -2.425113    14.094747    0.039726    0.158218    28.189604    0.000000    -0.000000    14.094802    0.000000    -0.000000    23.993168    0.035889    0.103969    47.986393    0.000000    -0.000000    23.993191    0.000000    -0.000000    33.891582    0.022783    0.051187    67.783165    0.000000    -0.000000    33.891582    0.000000    -0.000000    44.089920    0.000000    -0.000000    88.179840    0.000000    -0.000000    44.089920    0.000000    -0.000000    20.716381    17.918947    8.336525    1.342965    14.241968    11.763275    -23.026823    -3.397943    -25.319136    0.061337    -1.832831    -0.830489    -11.413827    0.170742    -1.667486    8.756778    32.379829    -13.315566    6.982410    -21.073992    -2.634448    0.179487    -0.470028    -0.288681    
-0.978092    78.307159    124.601135    -6.157962    -11.251759    -22.120371    -11.902719    -15.396952    -12.191374    -4.948992    22.210653    -2.572439    1.612110    32.269878    13.716190    14.139298    6.108093    12.320567    7.168645    7.175764    -13.947707    -64.710983    58.534527    0.002699    30.768841    8.023221    -35.467041    -47.204208    -11.656576    -31.466587    -3.325183    1.245815    -2.327440    0.000000    0.000000    0.000000    0.000000    0.000000    0.000000    -25.293583    10.145635    -20.443340    -54.255337    0.000000    0.000000    -27.127668    0.000000    0.000000    -31.716883    4.043105    -8.680169    -63.948963    0.000000    0.000000    -31.974478    0.000000    0.000000    -36.761997    -3.196481    2.325124    -73.642578    0.000000    0.000000    -36.821281    0.000000    0.000000    -40.484806    -11.502798    13.149125    -83.629921    0.000000    0.000000    -41.814964    0.000000    0.000000    -11.377188    6.731250    -1.054504    93.901459    57.909538    -4.143723    -7.690059    -15.126431    10.467255    21.384506    -46.104095    7.705643    0.224460    0.524186    -0.731444    0.000000    0.000000    -1.238226    0.000000    0.000000    -2.476452    14.082276    0.052728    0.210192    28.164742    0.000000    -0.000000    14.082371    0.000000    -0.000000    23.985922    0.047652    0.138124    47.971947    0.000000    -0.000000    23.985968    0.000000    -0.000000    33.889561    0.030257    0.068003    67.779129    0.000000    -0.000000    33.889576    0.000000    -0.000000    44.093277    0.000000    -0.000000    88.186539    0.000000    -0.000000    44.093277    0.000000    -0.000000    21.032587    17.744860    8.019129    1.252072    14.584377    11.401512    -22.908943    -3.482791    -25.454227    0.072392    -1.784964    -0.841792    -11.296826    0.799181    -1.809650    8.620273    32.405632    -13.064211    7.129089    -21.304632    -2.380532    0.186417    -0.502090    -0.299379    
